<svg
  width="40"
  height="40"
  viewBox="0 0 40 40"
  xmlns="http://www.w3.org/2000/svg"
>
  <path d="M34.1666 0H10.8334C7.61664 0 5 2.61664 5 5.83336V20.8334C5 24.05 7.61664 26.6667 10.8334 26.6667H25.4884L33.5767 34.7567C33.7367 34.9151 33.9501 35.0001 34.1667 35.0001C34.2734 35.0001 34.3817 34.9784 34.4851 34.9367C34.7967 34.8084 35.0001 34.5034 35.0001 34.1667V26.6084C37.8234 26.2017 40.0001 23.7667 40.0001 20.8334V5.83336C40 2.61664 37.3834 0 34.1666 0ZM38.3334 20.8334C38.3334 23.1317 36.4634 25 34.1667 25C33.7067 25 33.3334 25.3734 33.3334 25.8334V32.155L26.4234 25.2434C26.2667 25.0884 26.055 25 25.8334 25H10.8334C8.53672 25 6.66672 23.1316 6.66672 20.8334V5.83336C6.66672 3.535 8.53672 1.66672 10.8334 1.66672H34.1667C36.4634 1.66672 38.3334 3.53508 38.3334 5.83336V20.8334V20.8334Z" />
  <path d="M26.12 30H14.1666C13.945 30 13.7333 30.0883 13.5766 30.245L6.66664 37.155V30.8333C6.66664 30.3733 6.29328 30 5.83328 30C3.53664 30 1.66664 28.1316 1.66664 25.8333V10.8333C1.66664 9.64999 2.17164 8.51671 3.055 7.72999C3.39836 7.42163 3.42664 6.89499 3.12 6.55335C2.81164 6.20999 2.28836 6.17999 1.94336 6.48671C0.708359 7.59163 0 9.17663 0 10.8333V25.8333C0 28.7667 2.17664 31.2017 5 31.6083V39.1667C5 39.5033 5.20336 39.8083 5.515 39.9367C5.61836 39.9783 5.72664 40.0001 5.83336 40.0001C6.05 40.0001 6.26336 39.9151 6.42172 39.7567L14.5117 31.6667H26.1201C26.5801 31.6667 26.9534 31.2933 26.9534 30.8333C26.9534 30.3733 26.58 30 26.12 30Z" />
  <defs>
    <clipPath id="clip0">
      <rect width="40" height="40" />
    </clipPath>
  </defs>
</svg>