<svg width="50" height="50" viewBox="0 0 50 50" fill="none" xmlns="http://www.w3.org/2000/svg">
<path d="M1.38 0H49.7133V20H1.38V0V0Z" fill="#8CE2FF"/>
<path d="M26.38 4.16669H44.7133V5.83335H26.38V4.16669Z" fill="#565151"/>
<path d="M28.88 9.16669H47.2133V10.8334H28.88V9.16669Z" fill="#565151"/>
<path d="M25.5467 14.1667H43.88V15.8334H25.5467V14.1667Z" fill="#565151"/>
<path d="M23.6643 4.33592L13.1004 8.33332H12.1055C13.7328 7.47238 14.354 5.4553 13.493 3.82801C12.6321 2.20071 10.615 1.57957 8.98772 2.44051C7.36043 3.30144 6.73928 5.31853 7.60022 6.94582C7.91303 7.53707 8.39647 8.02051 8.98772 8.33332H7.1998C5.1998 8.33332 3.40626 9.56509 2.68824 11.4319L0.286682 20.7607L2.90658 21.9699L6.38001 11.6667V34.2536C6.38001 35.1261 7.0873 35.8333 7.9597 35.8333H8.13366C9.00616 35.8333 9.71334 35.126 9.71334 34.2536V22.5H11.38L11.5541 34.277C11.5669 35.1402 12.2702 35.8333 13.1337 35.8333C14.0062 35.8333 14.7133 35.126 14.7133 34.2536V11.6667L25.2767 6.5528L23.6643 4.33592Z" fill="#FD614B"/>
<path d="M1.38 0H49.7133V1.66667H1.38V0V0Z" fill="#565151"/>
<path d="M46.9563 40.0261C48.5962 39.1911 49.2488 37.1848 48.4138 35.5449C47.5788 33.905 45.5725 33.2524 43.9326 34.0874C42.2927 34.9224 41.6401 36.9287 42.4751 38.5686C42.8006 39.208 43.3239 39.7251 43.9669 40.0433C42.4849 40.2531 41.3826 41.5203 41.38 43.0169V49.9999H49.7133V43.017C49.7103 41.4554 48.5124 40.156 46.9563 40.0261Z" fill="#FD614B"/>
<path d="M33.6229 40.0261C35.2628 39.1911 35.9154 37.1848 35.0804 35.5449C34.2454 33.905 32.2392 33.2524 30.5993 34.0874C28.9594 34.9224 28.3068 36.9287 29.1418 38.5686C29.4673 39.208 29.9905 39.7251 30.6336 40.0433C29.1516 40.2531 28.0493 41.5203 28.0467 43.0169V49.9999H36.38V43.017C36.377 41.4554 35.1791 40.156 33.6229 40.0261Z" fill="#27AE60"/>
<path d="M20.2896 40.0261C21.9295 39.1911 22.5821 37.1848 21.7471 35.5449C20.9121 33.905 18.9058 33.2524 17.2659 34.0874C15.626 34.9224 14.9734 36.9287 15.8084 38.5686C16.1339 39.208 16.6572 39.7251 17.3002 40.0433C15.8182 40.2531 14.7159 41.5203 14.7133 43.0169V49.9999H23.0467V43.017C23.0436 41.4554 21.8457 40.156 20.2896 40.0261Z" fill="#FECD0D"/>
<path d="M6.95625 40.0261C8.59615 39.1911 9.24875 37.1848 8.41375 35.5449C7.57875 33.905 5.5725 33.2524 3.93261 34.0874C2.29271 34.9224 1.64011 36.9287 2.47511 38.5686C2.80063 39.208 3.32386 39.7251 3.96688 40.0433C2.4849 40.2531 1.38261 41.5203 1.38 43.0169V49.9999H9.71334V43.017C9.71032 41.4554 8.5124 40.156 6.95625 40.0261Z" fill="#8CE2FF"/>
</svg>
