<svg
  width="50"
  height="50"
  viewBox="0 0 50 50"
  fill="none"
  xmlns="http://www.w3.org/2000/svg"
>
  <g clip-path="url(#clip0)">
    <path
      d="M45.6055 5.85938C46.4145 5.85938 47.0703 5.20354 47.0703 4.39453C47.0703 3.58552 46.4145 2.92969 45.6055 2.92969C44.7965 2.92969 44.1406 3.58552 44.1406 4.39453C44.1406 5.20354 44.7965 5.85938 45.6055 5.85938Z"
      fill="#DDDCE6"
    />
    <path
      d="M48.5352 17.5781C49.3442 17.5781 50 16.9223 50 16.1133C50 15.3043 49.3442 14.6484 48.5352 14.6484C47.7261 14.6484 47.0703 15.3043 47.0703 16.1133C47.0703 16.9223 47.7261 17.5781 48.5352 17.5781Z"
      fill="#DDDCE6"
    />
    <path
      d="M39.7461 8.78906C37.3144 8.78906 35.3516 6.82627 35.3516 4.39453C35.3516 3.57412 34.7071 2.92969 33.8867 2.92969C33.0663 2.92969 32.4219 3.57412 32.4219 4.39453C32.4219 6.82627 30.3614 8.78906 27.9297 8.78906C27.1093 8.78906 26.4648 9.4335 26.4648 10.2539C26.4648 11.0743 27.1093 11.7188 27.9297 11.7188C30.3614 11.7188 32.4219 13.6815 32.4219 16.1133C32.4219 16.9337 33.0663 17.5781 33.8867 17.5781C34.7071 17.5781 35.3516 16.9337 35.3516 16.1133C35.3516 13.6815 37.3144 11.7188 39.7461 11.7188C40.5665 11.7188 41.2109 11.0743 41.2109 10.2539C41.2109 9.4335 40.5665 8.78906 39.7461 8.78906Z"
      fill="#F2EEF3"
    />
    <path
      d="M41.2109 10.2539C41.2109 11.0743 40.5665 11.7188 39.7461 11.7188C37.3144 11.7188 35.3516 13.6815 35.3516 16.1133C35.3516 16.9337 34.7071 17.5781 33.8867 17.5781V2.92969C34.7071 2.92969 35.3516 3.57412 35.3516 4.39453C35.3516 6.82627 37.3144 8.78906 39.7461 8.78906C40.5665 8.78906 41.2109 9.4335 41.2109 10.2539Z"
      fill="#DDDCE6"
    />
    <path
      d="M48.1246 31.3028C47.5925 30.9323 46.8758 30.9552 46.3665 31.3644C43.2094 33.9092 39.3999 35.2539 35.3516 35.2539C30.8471 35.2539 26.6488 33.439 23.5352 30.6432C19.9485 27.423 17.6758 22.7668 17.6758 17.5781C17.6758 12.5258 19.8373 7.84297 23.5352 4.53564C24.2734 3.87529 25.0504 3.2502 25.9084 2.70937C26.4605 2.36172 26.6522 1.68799 26.4706 1.06143C26.2903 0.434863 25.6523 0 25 0C24.5056 0 24.0226 0.0456055 23.5352 0.0742187C10.4867 0.838965 0 11.6653 0 24.9023C0 38.1394 10.4867 49.161 23.5352 49.9258C24.0226 49.9544 24.5056 50 25 50C35.6773 50 45.2493 43.0988 48.6739 32.9736C48.8828 32.3571 48.6582 31.6762 48.1246 31.3028Z"
      fill="#FFDA2D"
    />
    <path
      d="M48.6739 32.9737C48.8828 32.3572 48.6582 31.6762 48.1246 31.3029C47.5925 30.9323 46.8758 30.9552 46.3665 31.3644C43.2094 33.9092 39.3999 35.2539 35.3516 35.2539C30.8471 35.2539 26.6488 33.439 23.5352 30.6432V49.9258C24.0226 49.9544 24.5056 50 25 50C35.6773 50 45.2493 43.0988 48.6739 32.9737Z"
      fill="#FDBF00"
    />
    <path
      d="M25.9084 2.70937C26.4605 2.36172 26.6522 1.68799 26.4706 1.06143C26.2903 0.434863 25.6523 0 25 0C24.5056 0 24.0226 0.0456055 23.5352 0.0742187V4.53564C24.2734 3.87529 25.0504 3.2501 25.9084 2.70937Z"
      fill="#FDBF00"
    />
  </g>
  <defs>
    <clipPath id="clip0">
      <rect width="50" height="50" fill="white" />
    </clipPath>
  </defs>
</svg>