<svg
  width="50"
  height="50"
  viewBox="0 0 50 50"
  fill="none"
  xmlns="http://www.w3.org/2000/svg"
>
  <g clip-path="url(#clip0)">
    <path
      d="M29.452 37.3214L27.664 31.4437L28.0289 31.4083C28.838 31.3309 29.4304 30.612 29.3529 29.8038C29.2745 28.9947 28.5556 28.4023 27.7474 28.4798L26.7912 28.5719L25.168 23.2356L23.3222 17.1665C22.8946 15.7581 20.8732 15.7866 20.4926 17.2166L17.2296 29.4939L14.5894 29.7479C13.7802 29.8264 13.1879 30.5453 13.2663 31.3534C13.3399 32.1145 13.9793 32.6843 14.7286 32.6843C14.7757 32.6843 14.8238 32.6814 14.8718 32.6775L16.4224 32.5274L15.1445 37.3352C14.9356 38.1198 15.4034 38.926 16.188 39.1349C16.9736 39.3438 17.7798 38.876 17.9878 38.0913L19.5472 32.2263L24.6766 31.732L25.168 33.3473L26.6372 38.1776C26.8728 38.9554 27.6953 39.3931 28.4722 39.1574C29.25 38.9211 29.6884 38.0992 29.452 37.3214V37.3214ZM20.3534 29.1928L22.0099 22.9629L23.8037 28.8603L20.3534 29.1928Z"
      fill="#FF7C48"
    />
    <path
      d="M32.7449 20.7071C33.5573 20.7071 34.216 20.0484 34.216 19.236V16.0759L35.846 16.1703C35.8749 16.1719 35.9036 16.1727 35.9323 16.1727C36.7058 16.1727 37.3544 15.5687 37.3996 14.7865C37.4466 13.9753 36.827 13.2797 36.0159 13.2327L34.2159 13.1286V11.3181C34.2159 10.5056 33.5572 9.84692 32.7448 9.84692C31.9323 9.84692 31.2736 10.5056 31.2736 11.3181V12.9583L29.6436 12.864C28.8327 12.8169 28.1369 13.4366 28.0899 14.2477C28.0429 15.0588 28.6625 15.7544 29.4736 15.8014L31.2736 15.9055V19.236C31.2737 20.0484 31.9324 20.7071 32.7449 20.7071V20.7071Z"
      fill="#FF415B"
    />
    <path
      d="M25.168 49.997C7.18045 49.7501 0.408902 35.4899 2.47686 22.7844C4.23048 12.0165 12.0855 3.22391 25.168 0.719017C28.9803 -0.0116584 33.2359 -0.208794 37.9132 0.235496C38.7223 0.312977 39.3157 1.0309 39.2392 1.83906C39.1627 2.6482 38.4447 3.24058 37.6356 3.16506C32.9112 2.71685 28.7704 2.95028 25.168 3.70253C12.7093 6.30256 6.7089 15.0971 5.38093 23.2572C3.74461 33.3121 8.31089 46.7772 25.168 47.0625C46.4934 47.4248 49.7621 20.4683 38.9214 8.94476C38.3653 8.35335 38.3928 7.4226 38.9852 6.86552C39.5766 6.30844 40.5083 6.33688 41.0644 6.92927C53.5009 20.1497 49.3352 50.3477 25.168 49.997V49.997Z"
      fill="#FF7C48"
    />
    <path
      d="M26.6372 38.1777L25.168 33.3474V23.2356L26.7912 28.572L27.7475 28.4798C28.5556 28.4023 29.2745 28.9947 29.353 29.8038C29.4305 30.612 28.8381 31.3309 28.0289 31.4084L27.6641 31.4437L29.452 37.3214C29.6884 38.0992 29.25 38.9211 28.4722 39.1574C27.6942 39.3935 26.8725 38.9544 26.6372 38.1777V38.1777Z"
      fill="#FF415B"
    />
    <path
      d="M25.168 3.70253V0.719017C28.9803 -0.0116584 33.2359 -0.208794 37.9132 0.235496C38.7223 0.312977 39.3157 1.0309 39.2392 1.83906C39.1627 2.6482 38.4448 3.24058 37.6356 3.16506C32.9112 2.71685 28.7704 2.95028 25.168 3.70253V3.70253Z"
      fill="#FF415B"
    />
    <path
      d="M25.168 49.997V47.0625C46.4934 47.4248 49.7621 20.4682 38.9214 8.94474C38.3653 8.35334 38.3928 7.42258 38.9852 6.8655C39.5766 6.30843 40.5083 6.33687 41.0644 6.92926C53.5009 20.1497 49.3352 50.3477 25.168 49.997V49.997Z"
      fill="#FF415B"
    />
  </g>
  <defs>
    <clipPath id="clip0">
      <rect width="50" height="50" fill="white" />
    </clipPath>
  </defs>
</svg>