<svg
  width="40"
  height="40"
  viewBox="0 0 40 40"
  xmlns="http://www.w3.org/2000/svg"
>
  <path d="M39.7799 18.252L33.7929 12.7275V3.67686H26.8963V6.36409L19.9997 0L0.220136 18.252C-0.0584876 18.5097 -0.0750394 18.9435 0.184274 19.2211C0.442897 19.498 0.879453 19.5137 1.15946 19.2567L3.44845 17.1445V40H14.483H25.5176H36.5522V17.1438L38.8412 19.2561C38.9736 19.3787 39.1426 19.439 39.3109 19.439C39.4964 19.439 39.6806 19.3657 39.8157 19.2204C40.075 18.9435 40.0585 18.5097 39.7799 18.252ZM28.2756 5.04755H32.4136V11.4548L28.2756 7.63677V5.04755ZM15.8617 38.6293V24.194C15.8617 23.8396 16.1513 23.5518 16.5079 23.5518H23.4914C23.848 23.5518 24.1376 23.8396 24.1376 24.194V38.6293H15.8617V38.6293ZM35.1722 38.6293H25.517V24.194C25.517 23.0837 24.6087 22.1811 23.4914 22.1811H16.5079C15.3906 22.1811 14.4824 23.0837 14.4824 24.194V38.6293H4.82708V15.8712L19.9997 1.8703L29.848 10.9579L33.7929 14.5978L35.1722 15.8705V38.6293V38.6293Z" />
</svg>