<svg
  width="40"
  height="40"
  viewBox="0 0 40 40"
  xmlns="http://www.w3.org/2000/svg"
>
  <path d="M38 2.66667H33.3333V0.666667C33.3333 0.298 33.0353 0 32.6666 0H28C27.6313 0 27.3333 0.298 27.3333 0.666667V2.66667H12.6666V0.666667C12.6666 0.298 12.3686 0 12 0H7.33331C6.96465 0 6.66665 0.298 6.66665 0.666667V2.66667H1.99998C1.63131 2.66667 1.33331 2.96467 1.33331 3.33333V10.6667V39.3333C1.33331 39.702 1.63131 40 1.99998 40H38C38.3686 40 38.6666 39.702 38.6666 39.3333V10.6667V3.33333C38.6666 2.96467 38.3686 2.66667 38 2.66667ZM28.6666 1.33333H32V3.33333V5.33333H28.6666V3.33333V1.33333ZM7.99998 1.33333H11.3333V3.33333V5.33333H7.99998V3.33333V1.33333ZM2.66665 4H6.66665V6C6.66665 6.36867 6.96465 6.66667 7.33331 6.66667H12C12.3686 6.66667 12.6666 6.36867 12.6666 6V4H27.3333V6C27.3333 6.36867 27.6313 6.66667 28 6.66667H32.6666C33.0353 6.66667 33.3333 6.36867 33.3333 6V4H37.3333V10H2.66665V4ZM2.66665 38.6667V11.3333H37.3333V38.6667H2.66665Z" />
  <path d="M25.3333 15.3333H20.6666H19.3333H14.6666H13.3333H7.33331V21.3333V22.6666V27.3333V28.6666V34.6666H13.3333H14.6666H19.3333H20.6666H25.3333H26.6666H32.6666V28.6666V27.3333V22.6666V21.3333V15.3333H26.6666H25.3333ZM20.6666 16.6666H25.3333V21.3333H20.6666V16.6666ZM25.3333 27.3333H20.6666V22.6666H25.3333V27.3333ZM14.6666 22.6666H19.3333V27.3333H14.6666V22.6666ZM14.6666 16.6666H19.3333V21.3333H14.6666V16.6666ZM8.66665 16.6666H13.3333V21.3333H8.66665V16.6666ZM8.66665 22.6666H13.3333V27.3333H8.66665V22.6666ZM13.3333 33.3333H8.66665V28.6666H13.3333V33.3333ZM19.3333 33.3333H14.6666V28.6666H19.3333V33.3333ZM25.3333 33.3333H20.6666V28.6666H25.3333V33.3333ZM31.3333 33.3333H26.6666V28.6666H31.3333V33.3333ZM31.3333 27.3333H26.6666V22.6666H31.3333V27.3333ZM31.3333 16.6666V21.3333H26.6666V16.6666H31.3333Z" />
</svg>