<svg width="50" height="50" viewBox="0 0 50 50" fill="none" xmlns="http://www.w3.org/2000/svg">
<path d="M25 50C38.8071 50 50 38.8071 50 25C50 11.1929 38.8071 0 25 0C11.1929 0 0 11.1929 0 25C0 38.8071 11.1929 50 25 50Z" fill="#FE843F"/>
<path d="M50 25C50 24.7089 49.9931 24.4194 49.9834 24.1307L42.8726 17.0199L7.12717 39.8457L15.3501 48.0686C18.3194 49.3122 21.5792 50 25 50C38.8071 50 50 38.8071 50 25Z" fill="#FC5A37"/>
<path d="M42.8728 20.2804V34.4109L38.0082 35.4978L33.1435 34.4109V20.2804L38.0082 19.1935L42.8728 20.2804Z" fill="#48D9FF"/>
<path d="M42.8725 17.0199V20.2808H33.1439L34.2309 17.0199H42.8725Z" fill="#FFAE46"/>
<path d="M42.8728 34.4109V39.8456H34.2304L33.1435 34.4109H42.8728Z" fill="#FFC85F"/>
<path d="M16.8565 20.2804V34.4109L11.9918 35.4978L7.12717 34.4109V20.2804L11.9918 19.1935L16.8565 20.2804Z" fill="#7BE3FF"/>
<path d="M15.7691 17.0199L16.8561 20.2808H7.1275V17.0199H15.7691Z" fill="#FFC85F"/>
<path d="M16.8565 34.4109L15.7696 39.8456H7.12717V34.4109H16.8565Z" fill="#FFE278"/>
<path d="M31.3241 4.95478H25V9.88609H31.3241V4.95478Z" fill="#6E1D0B"/>
<path d="M26.087 4.95467H23.913V13.759H26.087V4.95467Z" fill="#FFC85F"/>
<path d="M25 12.6717L26.087 26.2587L25 38.7587L18.4783 39.8457H15.7696V12.6717H25Z" fill="white"/>
<path d="M34.2304 12.6717V39.8457H31.5217L25 38.7587V12.6717H34.2304Z" fill="#FFF2D4"/>
<path d="M31.5217 26.8025H18.4783V28.9764L25 30.0634L31.5217 28.9764V26.8025Z" fill="#FFE278"/>
<path d="M20.652 19.6911C20.652 22.0923 22.5985 24.0389 24.9998 24.0389L26.0867 19.6911L24.9998 15.3433C22.5985 15.3433 20.652 17.2899 20.652 19.6911Z" fill="#FFE278"/>
<path d="M24.9998 15.3433V24.0389C27.401 24.0389 29.3476 22.0923 29.3476 19.6911C29.3476 17.2899 27.401 15.3433 24.9998 15.3433Z" fill="#FFC85F"/>
<path d="M25 28.9764L26.087 34.4112L25 39.846H18.4783V28.9764H25Z" fill="#DB3916"/>
<path d="M31.5217 28.9764H25V39.846H31.5217V28.9764Z" fill="#6E1D0B"/>
</svg>
