<svg
  width="40"
  height="40"
  viewBox="0 0 40 40"
  xmlns="http://www.w3.org/2000/svg"
>
  <path d="M20 0C8.9543 0 0 8.9543 0 20C0 31.0457 8.9543 40 20 40C31.0457 40 40 31.0457 40 20C40 8.9543 31.0457 0 20 0ZM20 37.5C10.335 37.5 2.5 29.665 2.5 20C2.5 10.335 10.335 2.5 20 2.5C29.665 2.5 37.5 10.335 37.5 20C37.5 29.665 29.665 37.5 20 37.5Z" />
  <path d="M20 22.5C21.3807 22.5 22.5 21.3807 22.5 20C22.5 18.6193 21.3807 17.5 20 17.5C18.6193 17.5 17.5 18.6193 17.5 20C17.5 21.3807 18.6193 22.5 20 22.5Z" />
  <path d="M28.75 22.5C30.1307 22.5 31.25 21.3807 31.25 20C31.25 18.6193 30.1307 17.5 28.75 17.5C27.3693 17.5 26.25 18.6193 26.25 20C26.25 21.3807 27.3693 22.5 28.75 22.5Z" />
  <path d="M11.25 22.5C12.6307 22.5 13.75 21.3807 13.75 20C13.75 18.6193 12.6307 17.5 11.25 17.5C9.86929 17.5 8.75 18.6193 8.75 20C8.75 21.3807 9.86929 22.5 11.25 22.5Z" />
</svg>