<svg
  width="40"
  height="40"
  viewBox="0 0 40 40"
  xmlns="http://www.w3.org/2000/svg"
>
  <g clipPath="url(#clip0)">
    <path d="M36.5484 33.7384L33.685 28.9684C32.365 26.7667 31.6666 24.2467 31.6666 21.6784V17.5C31.6666 11.0684 26.4316 5.83337 20 5.83337C13.5684 5.83337 8.33336 11.0684 8.33336 17.5V21.6784C8.33336 24.2467 7.63501 26.7667 6.31501 28.9684L3.45165 33.7384C3.29665 33.995 3.29329 34.3167 3.44001 34.5767C3.58836 34.8384 3.86665 35.0001 4.16665 35.0001H35.8333C36.1333 35.0001 36.4116 34.8384 36.5599 34.5767C36.7066 34.3166 36.7034 33.995 36.5484 33.7384ZM5.63836 33.3334L7.74336 29.825C9.22 27.365 10 24.5484 10 21.6784V17.5C10 11.985 14.485 7.50001 20 7.50001C25.515 7.50001 30 11.985 30 17.5V21.6784C30 24.5484 30.78 27.365 32.255 29.825L34.3616 33.3334H5.63836Z" />
    <path d="M20 0C18.1616 0 16.6666 1.495 16.6666 3.33336V6.66672C16.6666 7.12664 17.04 7.5 17.5 7.5C17.96 7.5 18.3334 7.12664 18.3334 6.66664V3.33336C18.3334 2.41336 19.08 1.66672 20 1.66672C20.92 1.66672 21.6666 2.41336 21.6666 3.33336V6.66672C21.6666 7.12664 22.04 7.5 22.5 7.5C22.96 7.5 23.3334 7.12664 23.3334 6.66664V3.33336C23.3334 1.495 21.8384 0 20 0Z" />
    <path d="M23.6066 33.745C23.3716 33.3484 22.8633 33.2184 22.465 33.4466C22.0666 33.68 21.9334 34.1916 22.1666 34.5883C22.3833 34.9566 22.5016 35.3983 22.5016 35.8333C22.5016 37.2116 21.38 38.3333 20.0016 38.3333C18.6233 38.3333 17.5016 37.2116 17.5016 35.8333C17.5016 35.3983 17.62 34.9566 17.8366 34.5883C18.0683 34.1899 17.935 33.6799 17.5383 33.4466C17.1366 33.2183 16.6299 33.3483 16.3966 33.745C16.0283 34.375 15.8333 35.0966 15.8333 35.8334C15.8334 38.1316 17.7016 40 20 40C22.2984 40 24.1666 38.1316 24.17 35.8334C24.17 35.0966 23.975 34.375 23.6066 33.745Z" />
  </g>
  <defs>
    <clipPath id="clip0">
      <rect width="40" height="40" fill="white" />
    </clipPath>
  </defs>
</svg>