<svg
  width="50"
  height="50"
  viewBox="0 0 50 50"
  fill="none"
  xmlns="http://www.w3.org/2000/svg"
>
  <g clip-path="url(#clip0)">
    <path
      d="M41.3793 3.4483V6.89658H35.3448V3.4483H14.6552V6.89658H8.62067V3.4483H1.72412V12.9311H48.2758V3.4483H41.3793Z"
      fill="#FC3952"
    />
    <path
      d="M8.62067 12.931H1.72412V50H48.2758V12.931H41.3793H35.3448H14.6552H8.62067Z"
      fill="#EDEADA"
    />
    <path
      d="M33.6207 18.9655H31.8965H25.862H24.1379H18.1034H16.3793H8.62067V26.7241V28.4483V34.4828V36.2069V43.9655H16.3793H18.1034H24.1379H25.862H31.8965H33.6207H41.3793V36.2069V34.4828V28.4483V26.7241V18.9655H33.6207ZM25.862 20.6897H31.8965V26.7241H25.862V20.6897ZM31.8965 34.4828H25.862V28.4483H31.8965V34.4828ZM18.1034 28.4483H24.1379V34.4828H18.1034V28.4483ZM18.1034 20.6897H24.1379V26.7241H18.1034V20.6897ZM10.3448 20.6897H16.3793V26.7241H10.3448V20.6897ZM10.3448 28.4483H16.3793V34.4828H10.3448V28.4483ZM16.3793 42.2414H10.3448V36.2069H16.3793V42.2414ZM24.1379 42.2414H18.1034V36.2069H24.1379V42.2414ZM31.8965 42.2414H25.862V36.2069H31.8965V42.2414ZM39.6551 42.2414H33.6207V36.2069H39.6551V42.2414ZM39.6551 34.4828H33.6207V28.4483H39.6551V34.4828ZM33.6207 26.7241V20.6897H39.6551V26.7241H33.6207Z"
      fill="#CEC9AE"
    />
    <path d="M14.6551 0H8.62067V6.89655H14.6551V0Z" fill="#28384C" />
    <path d="M41.3793 0H35.3448V6.89655H41.3793V0Z" fill="#28384C" />
    <path
      d="M31.8965 28.4483H25.8621V34.4828H31.8965V28.4483Z"
      fill="#26B99A"
    />
  </g>
  <defs>
    <clipPath id="clip0">
      <rect width="50" height="50" fill="white" />
    </clipPath>
  </defs>
</svg>