<svg
  width="50"
  height="50"
  viewBox="0 0 50 50"
  fill="none"
  xmlns="http://www.w3.org/2000/svg"
>
  <path
    d="M4.31175 48.1113V48.1102C1.93062 48.1098 0 46.1811 0 43.7999V10.3454C0 9.32614 0.826263 8.49988 1.84555 8.49988H18.2972V48.1113H4.31175Z"
    fill="#E8E9EA"
  />
  <path
    d="M4.31175 8.49988H4.97246V43.7996C4.97246 45.5284 3.9547 47.0176 2.48642 47.7047C3.0407 47.9641 3.65906 48.1098 4.31175 48.1098V48.1113H18.2972V8.49988H4.31175Z"
    fill="#D0D1D2"
  />
  <path
    d="M10.4687 1.95312C9.44978 1.95312 8.62352 2.77939 8.62352 3.79868V43.8C8.62352 46.1811 6.6929 48.1117 4.31177 48.1117H45.6883C48.0694 48.1117 50 46.1811 50 43.8V3.79868C50 2.77939 49.1738 1.95312 48.1545 1.95312H10.4687Z"
    fill="#F2F3F3"
  />
  <path
    d="M26.125 30.5508H15.7768C15.2073 30.5508 14.7457 30.0892 14.7457 29.5201V19.1719C14.7457 18.6024 15.2073 18.1408 15.7768 18.1408H26.125C26.6945 18.1408 27.1561 18.6024 27.1561 19.1719V29.5201C27.1557 30.0892 26.6945 30.5508 26.125 30.5508V30.5508Z"
    fill="#FFCE71"
  />
  <path
    d="M17.7639 29.5201V19.1719C17.7639 18.6024 18.2255 18.1408 18.795 18.1408H15.7768C15.2077 18.1408 14.7457 18.6024 14.7457 19.1719V29.5201C14.7457 30.0892 15.2073 30.5508 15.7768 30.5508H18.795C18.2255 30.5508 17.7639 30.0892 17.7639 29.5201Z"
    fill="#E5B965"
  />
  <path
    d="M44.6572 18.8735H30.653C30.2483 18.8735 29.9206 18.5455 29.9206 18.1411C29.9206 17.7364 30.2483 17.4087 30.653 17.4087H44.6572C45.0615 17.4087 45.3896 17.7364 45.3896 18.1411C45.3896 18.5455 45.0615 18.8735 44.6572 18.8735V18.8735Z"
    fill="#4A5359"
  />
  <path
    d="M44.6572 25.0782H30.653C30.2483 25.0782 29.9206 24.7505 29.9206 24.3458C29.9206 23.9414 30.2483 23.6133 30.653 23.6133H44.6572C45.0615 23.6133 45.3896 23.9414 45.3896 24.3458C45.3896 24.7505 45.0615 25.0782 44.6572 25.0782V25.0782Z"
    fill="#4A5359"
  />
  <path
    d="M44.6572 31.2831H30.653C30.2483 31.2831 29.9206 30.9555 29.9206 30.5507C29.9206 30.1464 30.2483 29.8183 30.653 29.8183H44.6572C45.0615 29.8183 45.3896 30.1464 45.3896 30.5507C45.3896 30.9555 45.0615 31.2831 44.6572 31.2831V31.2831Z"
    fill="#4A5359"
  />
  <path
    d="M44.6572 37.4882H14.7457C14.3414 37.4882 14.0133 37.1605 14.0133 36.7557C14.0133 36.3514 14.3414 36.0233 14.7457 36.0233H44.6572C45.0615 36.0233 45.3896 36.3514 45.3896 36.7557C45.3896 37.1605 45.0615 37.4882 44.6572 37.4882Z"
    fill="#4A5359"
  />
  <path
    d="M44.6572 43.6935H14.7457C14.3414 43.6935 14.0133 43.3654 14.0133 42.9611C14.0133 42.5563 14.3414 42.2286 14.7457 42.2286H44.6572C45.0615 42.2286 45.3896 42.5563 45.3896 42.9611C45.3896 43.3654 45.0615 43.6935 44.6572 43.6935Z"
    fill="#4A5359"
  />
  <path
    d="M14.0106 13.5253V5.55263C14.0106 5.3886 14.0884 5.26386 14.2441 5.17764C14.3997 5.09181 14.5882 5.04871 14.8094 5.04871C15.1039 5.04871 15.3294 5.10211 15.485 5.20854C15.6403 5.31497 15.8123 5.54462 16.0011 5.89633L18.372 10.4789V5.54042C18.372 5.37639 18.4498 5.25356 18.6054 5.17154C18.7607 5.0899 18.9495 5.04871 19.1704 5.04871C19.3916 5.04871 19.5801 5.0899 19.7357 5.17154C19.8914 5.25356 19.9692 5.37639 19.9692 5.54042V13.5257C19.9692 13.6814 19.8891 13.8042 19.7296 13.8942C19.5698 13.9843 19.3832 14.0293 19.1704 14.0293C18.7363 14.0293 18.4292 13.8614 18.2491 13.5257L15.6078 8.58684V13.5257C15.6078 13.6814 15.5281 13.8042 15.3683 13.8942C15.2084 13.9843 15.0223 14.0293 14.8094 14.0293C14.5882 14.0293 14.3997 13.9843 14.2441 13.8942C14.0884 13.8038 14.0106 13.6814 14.0106 13.5253Z"
    fill="#4A5359"
  />
  <path
    d="M21.4432 13.5253V5.55263C21.4432 5.39699 21.5126 5.27415 21.6522 5.18375C21.7911 5.09372 21.9551 5.04871 22.1436 5.04871H26.5171C26.6808 5.04871 26.8055 5.11851 26.8917 5.25775C26.9779 5.39699 27.0206 5.55682 27.0206 5.7365C27.0206 5.93333 26.9756 6.10118 26.8856 6.24042C26.7952 6.37965 26.6724 6.44908 26.5171 6.44908H23.0404V8.90613H24.9077C25.0629 8.90613 25.1858 8.96983 25.2762 9.09686C25.3662 9.22389 25.4112 9.37305 25.4112 9.54509C25.4112 9.70073 25.3681 9.84187 25.2823 9.9689C25.1965 10.0959 25.0713 10.1593 24.9077 10.1593H23.0404V12.6289H26.5171C26.6724 12.6289 26.7952 12.6983 26.8856 12.8376C26.9756 12.9772 27.0206 13.1446 27.0206 13.3415C27.0206 13.5215 26.9779 13.6814 26.8917 13.8202C26.8059 13.9598 26.6808 14.0293 26.5171 14.0293H22.1436C21.9551 14.0293 21.7911 13.9843 21.6522 13.8942C21.5126 13.8038 21.4432 13.6814 21.4432 13.5253V13.5253Z"
    fill="#4A5359"
  />
  <path
    d="M27.8191 5.68767C27.8191 5.51562 27.9297 5.36609 28.1509 5.23906C28.3718 5.11241 28.6011 5.04871 28.8387 5.04871C29.1336 5.04871 29.3098 5.15514 29.3671 5.368L31.308 12.0266L32.3521 7.75142C32.4261 7.45654 32.6881 7.3093 33.1387 7.3093C33.5808 7.3093 33.8387 7.45654 33.9123 7.75142L34.9567 12.0266L36.8977 5.368C36.9549 5.15514 37.1311 5.04871 37.426 5.04871C37.6633 5.04871 37.8925 5.11241 38.1138 5.23906C38.335 5.36609 38.4457 5.51562 38.4457 5.68767C38.4457 5.7365 38.4373 5.78571 38.4209 5.83492L35.9886 13.5623C35.8658 13.9228 35.5175 14.1029 34.9442 14.1029C34.6985 14.1029 34.4776 14.0556 34.2808 13.9614C34.0843 13.8675 33.9657 13.7344 33.9249 13.5623L33.1387 10.2451L32.3399 13.5623C32.2987 13.7344 32.1804 13.8675 31.9836 13.9614C31.7871 14.0556 31.5659 14.1029 31.3202 14.1029C31.0661 14.1029 30.8411 14.0556 30.6446 13.9614C30.4482 13.8675 30.3253 13.7344 30.2761 13.5623L27.8435 5.83492C27.8271 5.78571 27.8191 5.7365 27.8191 5.68767V5.68767Z"
    fill="#4A5359"
  />
  <path
    d="M38.8512 12.6163C38.8512 12.4279 38.9225 12.2375 39.0659 12.0453C39.2094 11.8526 39.3711 11.7565 39.5512 11.7565C39.6576 11.7565 39.7785 11.8076 39.9136 11.9095C40.049 12.0117 40.1798 12.1246 40.3069 12.2478C40.4335 12.3714 40.6158 12.4839 40.8535 12.5862C41.0912 12.688 41.3528 12.7392 41.6397 12.7392C42.033 12.7392 42.3603 12.6491 42.6224 12.4687C42.8844 12.289 43.0157 12.0228 43.0157 11.6703C43.0157 11.4246 42.944 11.2056 42.8005 11.013C42.6575 10.8207 42.469 10.6609 42.2356 10.5339C42.0021 10.4072 41.7461 10.2844 41.4677 10.1654C41.1892 10.0467 40.9088 9.9136 40.6261 9.76636C40.3439 9.61873 40.0856 9.45279 39.8521 9.26854C39.6187 9.08429 39.4302 8.83862 39.2872 8.53154C39.1438 8.22446 39.072 7.87427 39.072 7.48097C39.072 7.04076 39.1602 6.65166 39.3364 6.3152C39.5123 5.97836 39.748 5.71667 40.0425 5.52975C40.3374 5.34283 40.6525 5.20551 40.9885 5.11815C41.3242 5.03117 41.6805 4.9873 42.0574 4.9873C42.2703 4.9873 42.4953 5.00218 42.733 5.03156C42.9707 5.06093 43.2224 5.10938 43.4887 5.17651C43.7546 5.24403 43.9716 5.34932 44.1399 5.49199C44.3077 5.63504 44.3916 5.80289 44.3916 5.99667C44.3916 6.17902 44.334 6.36746 44.2196 6.56239C44.1048 6.75732 43.9491 6.8546 43.7527 6.8546C43.679 6.8546 43.4784 6.77678 43.1507 6.62114C42.823 6.46588 42.4587 6.38768 42.0574 6.38768C41.6153 6.38768 41.2731 6.47198 41.0316 6.63945C40.7898 6.80768 40.6693 7.03885 40.6693 7.33372C40.6693 7.57138 40.7677 7.77814 40.9641 7.95399C41.1606 8.13023 41.4043 8.27367 41.695 8.38391C41.9857 8.49454 42.3008 8.63377 42.6411 8.802C42.9806 8.96985 43.2961 9.15219 43.5867 9.34865C43.8774 9.54511 44.1212 9.82968 44.318 10.2024C44.5145 10.5751 44.6129 11.0111 44.6129 11.5104C44.6129 12.3508 44.3443 12.9989 43.808 13.4552C43.2716 13.9114 42.5652 14.1395 41.6889 14.1395C40.9107 14.1395 40.2431 13.9797 39.6866 13.6604C39.1293 13.3411 38.8512 12.9932 38.8512 12.6163Z"
    fill="#4A5359"
  />
</svg>