<svg width="50" height="50" viewBox="0 0 50 50" fill="none" xmlns="http://www.w3.org/2000/svg">
<path d="M49.1379 25V47.4138H33.6207V23.2759L49.1379 25Z" fill="#86B4CC"/>
<path d="M16.3793 23.2759V47.4138H0.862061V25L16.3793 23.2759Z" fill="#86B4CC"/>
<path d="M14.6552 23.2759H35.3448V47.4138H14.6552V23.2759Z" fill="#A1C8D3"/>
<path d="M22.4138 34.4828H27.5862C28.0623 34.4828 28.4483 34.8688 28.4483 35.3449V45.6897H21.5517V35.3449C21.5517 34.8688 21.9377 34.4828 22.4138 34.4828Z" fill="#567580"/>
<path d="M22.4138 31.0345C21.9377 31.0345 21.5517 30.6485 21.5517 30.1724V28.4483C21.5517 27.9721 21.9377 27.5862 22.4138 27.5862C22.8899 27.5862 23.2758 27.9721 23.2758 28.4483V30.1724C23.2758 30.6485 22.8899 31.0345 22.4138 31.0345Z" fill="#464F5E"/>
<path d="M10.3448 31.8965C9.86872 31.8965 9.48276 31.5106 9.48276 31.0345V29.3103C9.48276 28.8342 9.86872 28.4482 10.3448 28.4482C10.8209 28.4482 11.2069 28.8342 11.2069 29.3103V31.0345C11.2069 31.5106 10.8209 31.8965 10.3448 31.8965Z" fill="#464F5E"/>
<path d="M5.1724 31.8965C4.69629 31.8965 4.31033 31.5106 4.31033 31.0345V29.3103C4.31033 28.8342 4.69629 28.4482 5.1724 28.4482C5.64851 28.4482 6.03447 28.8342 6.03447 29.3103V31.0345C6.03447 31.5106 5.64851 31.8965 5.1724 31.8965Z" fill="#464F5E"/>
<path d="M10.3448 37.069C9.86872 37.069 9.48276 36.683 9.48276 36.2069V34.4827C9.48276 34.0066 9.86872 33.6207 10.3448 33.6207C10.8209 33.6207 11.2069 34.0066 11.2069 34.4827V36.2069C11.2069 36.683 10.8209 37.069 10.3448 37.069Z" fill="#464F5E"/>
<path d="M5.1724 37.069C4.69629 37.069 4.31033 36.683 4.31033 36.2069V34.4827C4.31033 34.0066 4.69629 33.6207 5.1724 33.6207C5.64851 33.6207 6.03447 34.0066 6.03447 34.4827V36.2069C6.03447 36.683 5.64851 37.069 5.1724 37.069Z" fill="#464F5E"/>
<path d="M10.3448 42.2413C9.86872 42.2413 9.48276 41.8554 9.48276 41.3792V39.6551C9.48276 39.179 9.86872 38.793 10.3448 38.793C10.8209 38.793 11.2069 39.179 11.2069 39.6551V41.3792C11.2069 41.8554 10.8209 42.2413 10.3448 42.2413Z" fill="#464F5E"/>
<path d="M5.1724 42.2413C4.69629 42.2413 4.31033 41.8554 4.31033 41.3792V39.6551C4.31033 39.179 4.69629 38.793 5.1724 38.793C5.64851 38.793 6.03447 39.179 6.03447 39.6551V41.3792C6.03447 41.8554 5.64851 42.2413 5.1724 42.2413Z" fill="#464F5E"/>
<path d="M44.8276 31.8965C44.3515 31.8965 43.9655 31.5106 43.9655 31.0345V29.3103C43.9655 28.8342 44.3515 28.4482 44.8276 28.4482C45.3037 28.4482 45.6896 28.8342 45.6896 29.3103V31.0345C45.6896 31.5106 45.3037 31.8965 44.8276 31.8965Z" fill="#464F5E"/>
<path d="M39.6552 31.8965C39.1791 31.8965 38.7931 31.5106 38.7931 31.0345V29.3103C38.7931 28.8342 39.1791 28.4482 39.6552 28.4482C40.1313 28.4482 40.5172 28.8342 40.5172 29.3103V31.0345C40.5172 31.5106 40.1313 31.8965 39.6552 31.8965Z" fill="#464F5E"/>
<path d="M44.8276 37.069C44.3515 37.069 43.9655 36.683 43.9655 36.2069V34.4827C43.9655 34.0066 44.3515 33.6207 44.8276 33.6207C45.3037 33.6207 45.6896 34.0066 45.6896 34.4827V36.2069C45.6896 36.683 45.3037 37.069 44.8276 37.069Z" fill="#464F5E"/>
<path d="M39.6552 37.069C39.1791 37.069 38.7931 36.683 38.7931 36.2069V34.4827C38.7931 34.0066 39.1791 33.6207 39.6552 33.6207C40.1313 33.6207 40.5172 34.0066 40.5172 34.4827V36.2069C40.5172 36.683 40.1313 37.069 39.6552 37.069Z" fill="#464F5E"/>
<path d="M44.8276 42.2413C44.3515 42.2413 43.9655 41.8554 43.9655 41.3792V39.6551C43.9655 39.179 44.3515 38.793 44.8276 38.793C45.3037 38.793 45.6896 39.179 45.6896 39.6551V41.3792C45.6896 41.8554 45.3037 42.2413 44.8276 42.2413Z" fill="#464F5E"/>
<path d="M39.6552 42.2413C39.1791 42.2413 38.7931 41.8554 38.7931 41.3792V39.6551C38.7931 39.179 39.1791 38.793 39.6552 38.793C40.1313 38.793 40.5172 39.179 40.5172 39.6551V41.3792C40.5172 41.8554 40.1313 42.2413 39.6552 42.2413Z" fill="#464F5E"/>
<path d="M27.5862 31.0345C27.1101 31.0345 26.7241 30.6485 26.7241 30.1724V28.4483C26.7241 27.9721 27.1101 27.5862 27.5862 27.5862C28.0623 27.5862 28.4483 27.9721 28.4483 28.4483V30.1724C28.4483 30.6485 28.0623 31.0345 27.5862 31.0345Z" fill="#464F5E"/>
<path d="M49.1379 45.6896H0.862069C0.385961 45.6896 0 46.0756 0 46.5517V48.2758C0 48.7519 0.385961 49.1379 0.862069 49.1379H12.931C12.931 49.614 13.317 50 13.7931 50H36.2069C36.683 50 37.069 49.614 37.069 49.1379H49.1379C49.614 49.1379 50 48.7519 50 48.2758V46.5517C50 46.0756 49.614 45.6896 49.1379 45.6896Z" fill="#EDC100"/>
<path d="M37.069 45.6896V49.1379C37.069 49.614 36.683 50 36.2069 50H13.7931C13.317 50 12.931 49.614 12.931 49.1379V45.6896H37.069Z" fill="#F8E8AB"/>
<path d="M32.7586 3.98279V14.6552H17.2414V3.98279L24.7845 6.97589C24.9237 7.02678 25.0764 7.02678 25.2155 6.97589L32.7586 3.98279Z" fill="#393F4B"/>
<path d="M47.0258 20.7845C46.7347 20.1985 46.137 19.8279 45.4827 19.8276H38.7931V18.1034L34.1293 13.4396C33.805 13.1142 33.3646 12.9312 32.9052 12.931H16.3276C15.8144 12.9283 15.327 13.1562 15 13.5517L11.2069 18.1034V19.8276H4.51723C3.86297 19.8279 3.26528 20.1985 2.97413 20.7845L0.862061 25H49.1379L47.0258 20.7845Z" fill="#4397D5"/>
<path d="M38.7931 18.1035V20.6897C38.7931 21.1658 38.4072 21.5517 37.931 21.5517H12.069C11.5929 21.5517 11.2069 21.1658 11.2069 20.6897V18.1035H38.7931Z" fill="#2B5781"/>
<path d="M12.931 21.5518H37.069V25H12.931V21.5518Z" fill="#3180BC"/>
<path d="M37.069 3.87936C37.0798 4.27357 36.8141 4.6219 36.431 4.71557L35.3448 5.00867L32.7586 5.70695L25.2155 7.73281C25.0739 7.76728 24.9261 7.76728 24.7845 7.73281L17.2414 5.70695L13.569 4.71557C13.1854 4.61945 12.9165 4.27475 12.9165 3.87936C12.9165 3.48398 13.1854 3.13928 13.569 3.04316L24.7845 0.0259147C24.9261 -0.00855686 25.0739 -0.00855686 25.2155 0.0259147L35.3448 2.75005L36.431 3.04316C36.8141 3.13682 37.0798 3.48516 37.069 3.87936V3.87936Z" fill="#464F5E"/>
<path d="M37.7155 9.95692C37.5569 10.1978 37.2884 10.3434 37 10.3449C36.8305 10.3468 36.6647 10.2956 36.5259 10.1983C35.787 9.71126 35.3431 8.88494 35.3448 8.00002V5.00864L36.431 4.71554C36.8141 4.62187 37.0798 4.27354 37.069 3.87933V8.00002C37.0691 8.30908 37.2246 8.59737 37.4828 8.76726C37.6728 8.89304 37.8044 9.08976 37.8481 9.31338C37.8919 9.53699 37.8441 9.76881 37.7155 9.95692Z" fill="#EDC100"/>
</svg>
