<svg width="50" height="50" viewBox="0 0 50 50" fill="none" xmlns="http://www.w3.org/2000/svg">
<path d="M50 25C50 38.8073 38.8073 50 25 50C11.1927 50 0 38.8073 0 25C0 11.1927 11.1927 0 25 0C38.8073 0 50 11.1927 50 25Z" fill="#B5E237"/>
<path d="M50 25C50 27.544 49.6201 29.9992 48.9132 32.3116C45.787 42.5507 36.2625 50 25 50C14.7892 50 6.007 43.877 2.12593 35.1025C0.758743 32.0137 0 28.5957 0 25C0 20.4865 1.19629 16.2529 3.28903 12.5977C7.59773 20.1241 15.707 25.1953 25 25.1953C34.293 25.1953 42.4034 20.1241 46.711 12.5977C48.8037 16.2529 50 20.4865 50 25Z" fill="#95D600"/>
<path d="M3.0022 36.8851C3.70105 38.176 4.509 39.3986 5.41614 40.5399C9.99606 46.3036 17.0666 50 25 50C32.9335 50 40.004 46.3036 44.5839 40.5399C45.4911 39.3986 46.299 38.176 46.9979 36.8851H3.0022Z" fill="#85AF12"/>
<path d="M47.5586 18.8839V35.7861C47.1241 36.6955 46.6358 37.5733 46.0976 38.4171H21.957V18.8839H47.5586Z" fill="#747E9E"/>
<path d="M19.6007 22.2343V32.7392C19.6728 32.753 19.7434 32.7667 19.8143 32.7812C19.8769 32.7938 19.9387 32.8075 20.0001 32.8213C20.0684 32.8358 20.1367 32.8514 20.205 32.8682C20.2118 32.8689 20.2179 32.8712 20.2248 32.8731V32.8914C20.2248 32.9346 20.2236 32.9765 20.2217 33.0185C20.2206 33.0528 20.2187 33.0868 20.216 33.1211C20.2149 33.1356 20.2137 33.1505 20.2118 33.1642C20.2092 33.2001 20.205 33.2363 20.2004 33.2725C20.1954 33.3134 20.1893 33.3553 20.1817 33.3965C20.1748 33.4373 20.1672 33.4774 20.1584 33.5186C20.1504 33.5586 20.1405 33.5987 20.131 33.6387C20.1203 33.6777 20.1096 33.7177 20.0966 33.757C20.0852 33.7959 20.0722 33.8348 20.0585 33.873C20.0245 33.9725 19.9845 34.0702 19.9395 34.1652C19.9326 34.1797 19.9257 34.1942 19.9181 34.209C19.9044 34.2361 19.8918 34.2628 19.8769 34.2892C19.87 34.3048 19.8613 34.3193 19.8525 34.3338C19.8448 34.3487 19.8368 34.3632 19.8281 34.378C19.7598 34.4971 19.6835 34.6104 19.6007 34.7179V36.7206L19.7998 36.792L21.4611 34.964L21.957 34.4169V22.2343H19.6007ZM19.6007 22.2343V32.7392C19.6728 32.753 19.7434 32.7667 19.8143 32.7812C19.8769 32.7938 19.9387 32.8075 20.0001 32.8213C20.0684 32.8358 20.1367 32.8514 20.205 32.8682C20.2118 32.8689 20.2179 32.8712 20.2248 32.8731V32.8914C20.2248 32.9346 20.2236 32.9765 20.2217 33.0185C20.2206 33.0528 20.2187 33.0868 20.216 33.1211C20.2149 33.1356 20.2137 33.1505 20.2118 33.1642C20.2092 33.2001 20.205 33.2363 20.2004 33.2725C20.1954 33.3134 20.1893 33.3553 20.1817 33.3965C20.1748 33.4373 20.1672 33.4774 20.1584 33.5186C20.1504 33.5586 20.1405 33.5987 20.131 33.6387C20.1203 33.6777 20.1096 33.7177 20.0966 33.757C20.0852 33.7959 20.0722 33.8348 20.0585 33.873C20.0245 33.9725 19.9845 34.0702 19.9395 34.1652C19.9326 34.1797 19.9257 34.1942 19.9181 34.209C19.9044 34.2361 19.8918 34.2628 19.8769 34.2892C19.87 34.3048 19.8613 34.3193 19.8525 34.3338C19.8448 34.3487 19.8368 34.3632 19.8281 34.378C19.7598 34.4971 19.6835 34.6104 19.6007 34.7179V36.7206L19.7998 36.792L21.4611 34.964L21.957 34.4169V22.2343H19.6007ZM50 25C50 22.0684 49.495 19.2551 48.5672 16.6416H19.6007V40.6593H44.4893C45.0653 39.9433 45.6024 39.1945 46.0976 38.417H21.957V18.8839H47.5586V35.786C49.1242 32.5207 50 28.8624 50 25ZM19.6007 22.2343V32.7392C19.6728 32.753 19.7434 32.7667 19.8143 32.7812C19.8769 32.7938 19.9387 32.8075 20.0001 32.8213C20.0684 32.8358 20.1367 32.8514 20.205 32.8682C20.2118 32.8689 20.2179 32.8712 20.2248 32.8731V32.8914C20.2248 32.9346 20.2236 32.9765 20.2217 33.0185C20.2206 33.0528 20.2187 33.0868 20.216 33.1211C20.2149 33.1356 20.2137 33.1505 20.2118 33.1642C20.2092 33.2001 20.205 33.2363 20.2004 33.2725C20.1954 33.3134 20.1893 33.3553 20.1817 33.3965C20.1748 33.4373 20.1672 33.4774 20.1584 33.5186C20.1504 33.5586 20.1405 33.5987 20.131 33.6387C20.1203 33.6777 20.1096 33.7177 20.0966 33.757C20.0852 33.7959 20.0722 33.8348 20.0585 33.873C20.0245 33.9725 19.9845 34.0702 19.9395 34.1652C19.9326 34.1797 19.9257 34.1942 19.9181 34.209C19.9044 34.2361 19.8918 34.2628 19.8769 34.2892C19.87 34.3048 19.8613 34.3193 19.8525 34.3338C19.8448 34.3487 19.8368 34.3632 19.8281 34.378C19.7598 34.4971 19.6835 34.6104 19.6007 34.7179V36.7206L19.7998 36.792L21.4611 34.964L21.957 34.4169V22.2343H19.6007ZM19.6007 22.2343V32.7392C19.6728 32.753 19.7434 32.7667 19.8143 32.7812C19.8769 32.7938 19.9387 32.8075 20.0001 32.8213C20.0684 32.8358 20.1367 32.8514 20.205 32.8682C20.2118 32.8689 20.2179 32.8712 20.2248 32.8731V32.8914C20.2248 32.9346 20.2236 32.9765 20.2217 33.0185C20.2206 33.0528 20.2187 33.0868 20.216 33.1211C20.2149 33.1356 20.2137 33.1505 20.2118 33.1642C20.2092 33.2001 20.205 33.2363 20.2004 33.2725C20.1954 33.3134 20.1893 33.3553 20.1817 33.3965C20.1748 33.4373 20.1672 33.4774 20.1584 33.5186C20.1504 33.5586 20.1405 33.5987 20.131 33.6387C20.1203 33.6777 20.1096 33.7177 20.0966 33.757C20.0852 33.7959 20.0722 33.8348 20.0585 33.873C20.0245 33.9725 19.9845 34.0702 19.9395 34.1652C19.9326 34.1797 19.9257 34.1942 19.9181 34.209C19.9044 34.2361 19.8918 34.2628 19.8769 34.2892C19.87 34.3048 19.8613 34.3193 19.8525 34.3338C19.8448 34.3487 19.8368 34.3632 19.8281 34.378C19.7598 34.4971 19.6835 34.6104 19.6007 34.7179V36.7206L19.7998 36.792L21.4611 34.964L21.957 34.4169V22.2343H19.6007ZM19.6007 22.2343V32.7392C19.6728 32.753 19.7434 32.7667 19.8143 32.7812C19.8769 32.7938 19.9387 32.8075 20.0001 32.8213C20.0684 32.8358 20.1367 32.8514 20.205 32.8682C20.2118 32.8689 20.2179 32.8712 20.2248 32.8731V32.8914C20.2248 32.9346 20.2236 32.9765 20.2217 33.0185C20.2206 33.0528 20.2187 33.0868 20.216 33.1211C20.2149 33.1356 20.2137 33.1505 20.2118 33.1642C20.2092 33.2001 20.205 33.2363 20.2004 33.2725C20.1954 33.3134 20.1893 33.3553 20.1817 33.3965C20.1748 33.4373 20.1672 33.4774 20.1584 33.5186C20.1405 33.5995 20.1203 33.6788 20.0966 33.757C20.0852 33.7959 20.0722 33.8348 20.0585 33.873C20.0245 33.9725 19.9845 34.0702 19.9395 34.1652C19.9326 34.1797 19.9257 34.1942 19.9181 34.209C19.9044 34.2361 19.8918 34.2628 19.8769 34.2892C19.87 34.3048 19.8613 34.3193 19.8525 34.3338C19.8448 34.3487 19.8368 34.3632 19.8281 34.378C19.7598 34.4971 19.6835 34.6104 19.6007 34.7179V36.7206L19.7998 36.792L21.4611 34.964L21.957 34.4169V22.2343H19.6007Z" fill="#323B5A"/>
<path d="M47.5586 18.8839V35.7861C47.1241 36.6955 46.6358 37.5733 46.0976 38.4171H34.8419V18.8839H47.5586Z" fill="#474F6F"/>
<path d="M28.9356 30.5275V27.2087H31.3965V27.7703H29.6059V28.5061H31.2721V29.0654H29.6059V29.9683H31.4598V30.5275H28.9356Z" fill="white"/>
<path d="M33.1711 28.6804V28.096H35.4916V28.6804H33.1711ZM33.1711 29.6852V29.0989H35.4916V29.6852H33.1711Z" fill="white"/>
<path d="M37.2596 28.1235H37.846V28.4515C38.0558 28.1963 38.3056 28.0689 38.5956 28.0689C38.7493 28.0689 38.8828 28.1006 38.9961 28.1639C39.1094 28.2276 39.2021 28.3233 39.2746 28.4515C39.3802 28.3233 39.4943 28.2276 39.6164 28.1639C39.7388 28.1006 39.8693 28.0689 40.0081 28.0689C40.1844 28.0689 40.3339 28.1048 40.4564 28.1765C40.5784 28.2482 40.6696 28.3535 40.7303 28.4923C40.7737 28.595 40.7959 28.7609 40.7959 28.9902V30.5275H40.1596V29.1534C40.1596 28.915 40.1378 28.7609 40.094 28.6915C40.0352 28.6011 39.9444 28.5557 39.8224 28.5557C39.7331 28.5557 39.6496 28.5827 39.571 28.6373C39.4924 28.6915 39.4359 28.7712 39.4012 28.8761C39.3665 28.981 39.3493 29.1466 39.3493 29.3728V30.5275H38.713V29.2099C38.713 28.976 38.7016 28.825 38.6791 28.7571C38.6566 28.6892 38.6215 28.6388 38.5738 28.6056C38.5261 28.5724 38.4617 28.5557 38.3804 28.5557C38.282 28.5557 38.1939 28.5824 38.1153 28.635C38.0367 28.6877 37.9806 28.7639 37.9467 28.8635C37.9127 28.9635 37.8959 29.1286 37.8959 29.3594V30.5275H37.2596V28.1235Z" fill="white"/>
<path d="M43.5577 29.3071L44.2074 29.5135C44.1078 29.8755 43.9422 30.1445 43.7103 30.3203C43.4788 30.4962 43.185 30.5843 42.8287 30.5843C42.3881 30.5843 42.0257 30.4336 41.7419 30.1326C41.4581 29.8313 41.3166 29.4197 41.3166 28.8974C41.3166 28.3451 41.4589 27.9163 41.7442 27.6107C42.0296 27.3048 42.4045 27.1522 42.8696 27.1522C43.2754 27.1522 43.605 27.272 43.8587 27.5119C44.0094 27.6539 44.1227 27.8576 44.1982 28.1234L43.5348 28.2818C43.4955 28.1097 43.4139 27.9739 43.2892 27.8743C43.1648 27.7744 43.0137 27.7248 42.8356 27.7248C42.5896 27.7248 42.3897 27.8129 42.2367 27.9895C42.0833 28.1662 42.0067 28.4523 42.0067 28.8475C42.0067 29.2671 42.0822 29.5662 42.2333 29.7439C42.3839 29.9221 42.5804 30.0113 42.8219 30.0113C42.9996 30.0113 43.153 29.9545 43.2812 29.8416C43.4097 29.7283 43.502 29.5501 43.5577 29.3071Z" fill="white"/>
<path d="M45.5379 27.6588V27.906H44.6049C44.6148 27.8125 44.6453 27.724 44.6956 27.6401C44.7464 27.5566 44.8459 27.4456 44.9951 27.3075C45.1153 27.1953 45.1889 27.1198 45.216 27.0801C45.2526 27.0248 45.2709 26.9706 45.2709 26.9169C45.2709 26.8577 45.2549 26.812 45.2232 26.7799C45.1912 26.7482 45.1469 26.7322 45.0909 26.7322C45.0352 26.7322 44.9913 26.749 44.9581 26.7826C44.9253 26.8158 44.9066 26.8715 44.9013 26.9493L44.6361 26.9226C44.6522 26.7761 44.7014 26.6708 44.7849 26.6071C44.8685 26.5434 44.9726 26.5114 45.0977 26.5114C45.2347 26.5114 45.3422 26.5484 45.4204 26.6224C45.499 26.696 45.5379 26.7879 45.5379 26.8978C45.5379 26.9603 45.5269 27.0199 45.5044 27.0767C45.4819 27.1331 45.4464 27.1923 45.3979 27.2541C45.3659 27.2953 45.3075 27.3544 45.2236 27.4315C45.1397 27.5085 45.0863 27.5596 45.0641 27.5848C45.0416 27.61 45.0233 27.6348 45.0096 27.6588H45.5379Z" fill="white"/>
<path d="M29.9423 45.2267V49.5106C28.3447 49.8321 26.6922 50 25 50C24.9462 50 24.8916 50 24.8379 49.9988C22.2236 49.9824 19.7059 49.5655 17.3416 48.8048C12.5889 47.2774 8.45602 44.3653 5.41876 40.5441C6.28699 38.3533 7.74687 36.462 9.60234 35.0662C10.339 34.5116 11.1385 34.0362 11.9873 33.6494C12.339 33.4904 12.6983 33.3458 13.0665 33.2176H13.0672C13.4533 33.0841 13.8466 32.9677 14.249 32.872C14.6553 32.7743 15.0684 32.6954 15.4884 32.6378C16.0595 32.5596 16.6427 32.5184 17.2352 32.5184C17.2363 32.5184 17.2363 32.5184 17.2363 32.5184C17.2714 32.5184 17.3065 32.5184 17.3416 32.5195C17.9306 32.5245 18.5116 32.5695 19.0792 32.6523H19.08C19.1582 32.6641 19.2352 32.6759 19.3127 32.6885C19.3897 32.7011 19.4668 32.7137 19.5431 32.7286C19.5625 32.7316 19.582 32.7354 19.6007 32.7392C19.6728 32.753 19.7433 32.7667 19.8143 32.7812C19.8768 32.7938 19.9386 32.8075 20.0001 32.8213C20.0683 32.8358 20.1366 32.8514 20.2049 32.8682C20.2118 32.8689 20.2179 32.8712 20.2247 32.8731C20.2305 32.8739 20.2362 32.8758 20.2411 32.877C20.3018 32.8914 20.3625 32.9071 20.422 32.922C20.7157 32.9979 21.006 33.0841 21.2902 33.1798C21.3203 33.1905 21.3505 33.2001 21.3798 33.2107C21.4786 33.2443 21.5771 33.2794 21.674 33.3164C21.7323 33.3378 21.7911 33.3603 21.8487 33.3828C21.8849 33.3965 21.9208 33.411 21.957 33.4259C21.9894 33.4385 22.0215 33.4511 22.0527 33.4648C22.2042 33.5262 22.3545 33.5907 22.5021 33.6593C22.5361 33.6738 22.5704 33.6895 22.6036 33.7051C22.6055 33.7059 22.6086 33.707 22.6105 33.7089C22.6524 33.7276 22.6925 33.7471 22.7325 33.7665C22.7432 33.7715 22.7539 33.7765 22.7638 33.7814C22.7733 33.786 22.7833 33.791 22.7928 33.7959C22.8535 33.826 22.9141 33.8554 22.9736 33.8856C22.9999 33.8985 23.0274 33.9123 23.0537 33.9268C23.08 33.9405 23.1064 33.9542 23.1327 33.9676C23.1476 33.9756 23.1621 33.9832 23.1766 33.9912C23.2033 34.0038 23.2284 34.0175 23.254 34.032C23.2792 34.0458 23.3047 34.0595 23.3299 34.0744H23.3311C23.3898 34.1053 23.4474 34.1385 23.5058 34.172H23.5069C23.5958 34.2216 23.6835 34.2735 23.7717 34.3273C23.7743 34.3292 23.7781 34.3311 23.7812 34.333C23.8048 34.3475 23.8281 34.3624 23.8514 34.3761C23.8514 34.3769 23.8525 34.3769 23.8525 34.3769C23.9101 34.4112 23.967 34.4471 24.0234 34.4826C24.0497 34.499 24.0753 34.5157 24.1005 34.5322C24.1085 34.5371 24.1154 34.5409 24.1222 34.5459C24.1466 34.5615 24.1699 34.576 24.1924 34.5917C24.2481 34.6279 24.3027 34.6649 24.3584 34.7023C24.3595 34.703 24.3603 34.7042 24.3622 34.705C24.4171 34.7423 24.4705 34.7793 24.5243 34.8175C24.5792 34.8556 24.6338 34.8945 24.6883 34.9335C24.7059 34.9464 24.7246 34.9598 24.7421 34.9735C24.7715 34.996 24.8016 35.0174 24.8321 35.0399C24.8905 35.0841 24.95 35.1288 25.0088 35.1738C26.1719 36.0741 27.1747 37.1719 27.9659 38.417C28.4073 39.1113 28.783 39.8506 29.0848 40.6288C29.089 40.6387 29.0928 40.6494 29.0966 40.6593C29.6425 42.0761 29.9423 43.6161 29.9423 45.2267Z" fill="#0F9BE8"/>
<path d="M29.9423 45.2267V49.5106C28.3447 49.8322 26.6922 50 25 50C24.9462 50 24.8917 50 24.8379 49.9989C22.2237 49.9825 19.706 49.5655 17.3416 48.8049V32.5195C17.9306 32.5245 18.5116 32.5695 19.0792 32.6523H19.08C19.1582 32.6641 19.2352 32.6759 19.3127 32.6885C19.3897 32.7011 19.4668 32.7137 19.5431 32.7286C19.5625 32.7316 19.582 32.7354 19.6007 32.7393C19.6728 32.753 19.7433 32.7667 19.8143 32.7812C19.8769 32.7938 19.9387 32.8075 20.0001 32.8213C20.0684 32.8358 20.1366 32.8514 20.2049 32.8682C20.2118 32.869 20.2179 32.8712 20.2248 32.8732C20.2305 32.8739 20.2362 32.8758 20.2412 32.877C20.3018 32.8915 20.3625 32.9071 20.422 32.922C20.7157 32.9979 21.006 33.0841 21.2902 33.1799C21.3203 33.1905 21.3505 33.2001 21.3799 33.2108C21.4787 33.2443 21.5771 33.2794 21.674 33.3164C21.7323 33.3378 21.7911 33.3603 21.8487 33.3828C21.8849 33.3965 21.9208 33.411 21.957 33.4259C21.9894 33.4385 22.0215 33.4511 22.0528 33.4648C22.2042 33.5262 22.3545 33.5907 22.5021 33.6594C22.5361 33.6739 22.5693 33.6895 22.6036 33.7059C22.6055 33.707 22.6074 33.7082 22.6105 33.709C22.6524 33.7276 22.6925 33.7471 22.7325 33.7666C22.7413 33.7704 22.7501 33.7753 22.7589 33.7803C22.7596 33.7803 22.7615 33.7814 22.7638 33.7814C22.7734 33.786 22.7833 33.791 22.7928 33.7959C22.8535 33.8261 22.9141 33.8554 22.9736 33.8856C23 33.8985 23.0274 33.9123 23.0537 33.9268C23.0801 33.9405 23.1064 33.9542 23.1327 33.9676C23.1476 33.9756 23.1621 33.9832 23.1766 33.9912C23.2285 34.0187 23.2792 34.0458 23.3299 34.0744H23.3311C23.3898 34.1053 23.4474 34.1385 23.5058 34.1721H23.5069C23.5764 34.2117 23.6454 34.2518 23.7137 34.2941C23.7335 34.3048 23.7518 34.3155 23.7717 34.3273C23.7743 34.3292 23.7782 34.3311 23.7812 34.333C23.7968 34.343 23.8136 34.3525 23.8293 34.3632C23.8369 34.3674 23.8438 34.3719 23.8514 34.3761C23.8514 34.3769 23.8525 34.3769 23.8525 34.3769C23.9101 34.4112 23.967 34.4471 24.0234 34.4826C24.0498 34.499 24.0753 34.5158 24.1005 34.5322C24.1085 34.5371 24.1154 34.5409 24.1222 34.5459C24.1467 34.5615 24.1699 34.576 24.1924 34.5917C24.2481 34.6279 24.3027 34.6649 24.3584 34.7023C24.3595 34.7031 24.3603 34.7042 24.3622 34.705C24.4171 34.7424 24.4705 34.7794 24.5243 34.8175C24.5792 34.8557 24.6338 34.8946 24.6883 34.9335C24.7059 34.9464 24.7246 34.9598 24.7421 34.9735C24.7715 34.996 24.8016 35.0174 24.8322 35.0399C24.8905 35.0842 24.95 35.1288 25.0088 35.1738C26.1719 36.0741 27.1748 37.1719 27.9659 38.4171C28.4073 39.1113 28.783 39.8506 29.0848 40.6288C29.089 40.6387 29.0928 40.6494 29.0966 40.6593C29.6425 42.0761 29.9423 43.6161 29.9423 45.2267Z" fill="#0066E8"/>
<path d="M29.9423 45.2266V49.5105C28.3447 49.8321 26.6922 50 25 50C24.9462 50 24.8916 50 24.8379 49.9988C22.2236 49.9824 19.7059 49.5655 17.3416 48.8048C12.5889 47.2774 8.45602 44.3653 5.41876 40.5441C6.28699 38.3533 7.74687 36.462 9.60234 35.0662C10.339 34.5115 11.1385 34.0362 11.9873 33.6494L12.9845 34.7381L14.8262 36.7508L17.3416 39.5L19.6007 37.0128L19.7998 36.792L21.4611 34.964L21.957 34.4169L22.6036 33.7059V33.7051C22.6055 33.7059 22.6086 33.707 22.6105 33.7089C22.6524 33.7276 22.6925 33.7471 22.7325 33.7665C22.7413 33.7703 22.7501 33.7753 22.7589 33.7803C22.7707 33.7852 22.7821 33.7909 22.7928 33.7959C22.8535 33.826 22.9141 33.8554 22.9736 33.8855C22.9999 33.8985 23.0274 33.9122 23.0537 33.9267C23.08 33.9405 23.1064 33.9542 23.1327 33.9676C23.1476 33.9756 23.1621 33.9832 23.1766 33.9912C23.2033 34.0038 23.2284 34.0175 23.254 34.032C23.2792 34.0458 23.3047 34.0595 23.3299 34.0744H23.3311C23.3898 34.1053 23.4474 34.1385 23.5058 34.172H23.5069C23.5763 34.2117 23.6454 34.2518 23.7137 34.2941C23.7335 34.3048 23.7518 34.3155 23.7717 34.3273C23.7743 34.3292 23.7781 34.3311 23.7812 34.333C23.7968 34.3429 23.8136 34.3525 23.8293 34.3631C23.8369 34.3673 23.8438 34.3719 23.8514 34.3761C23.8514 34.3769 23.8525 34.3769 23.8525 34.3769C23.9189 34.4181 23.9853 34.4589 24.0509 34.5009C24.0673 34.5108 24.0841 34.5215 24.1005 34.5321C24.1085 34.5371 24.1154 34.5409 24.1222 34.5459C24.1466 34.5615 24.1699 34.576 24.1924 34.5916C24.2481 34.6279 24.3027 34.6649 24.3584 34.7023C24.3595 34.703 24.3603 34.7042 24.3622 34.7049C24.4171 34.7423 24.4705 34.7793 24.5243 34.8175C24.5663 34.8476 24.6105 34.8777 24.6513 34.9083C24.6815 34.9296 24.712 34.951 24.7421 34.9735C24.7715 34.996 24.8016 35.0174 24.8321 35.0399C24.8905 35.0841 24.95 35.1288 25.0088 35.1738C26.1719 36.074 27.1747 37.1719 27.9659 38.417C28.4073 39.1113 28.783 39.8506 29.0848 40.6288C29.089 40.6387 29.0928 40.6494 29.0966 40.6593C29.6425 42.0761 29.9423 43.6161 29.9423 45.2266Z" fill="#474F6F"/>
<path d="M29.9423 45.2267V49.5106C28.3447 49.8322 26.6922 50 25 50C24.9462 50 24.8917 50 24.8379 49.9989C22.2237 49.9825 19.706 49.5655 17.3416 48.8049V39.5L19.6007 37.0129L19.7998 36.792L21.4611 34.964L21.957 34.417L22.6036 33.7059V33.7051C22.6055 33.7059 22.6086 33.707 22.6105 33.709C22.6524 33.7276 22.6925 33.7471 22.7325 33.7666C22.7413 33.7704 22.7501 33.7753 22.7589 33.7803C22.7707 33.7852 22.7821 33.791 22.7928 33.7959C22.8535 33.8261 22.9141 33.8554 22.9736 33.8856C23 33.8985 23.0274 33.9123 23.0537 33.9268C23.0801 33.9405 23.1064 33.9542 23.1327 33.9676C23.1476 33.9756 23.1621 33.9832 23.1766 33.9912C23.2033 34.0038 23.2285 34.0176 23.254 34.0321C23.2792 34.0458 23.3047 34.0595 23.3299 34.0744H23.3311C23.3898 34.1053 23.4474 34.1385 23.5058 34.1721H23.5069C23.5764 34.2117 23.6454 34.2518 23.7137 34.2941C23.7335 34.3048 23.7518 34.3155 23.7717 34.3273C23.7743 34.3292 23.7782 34.3311 23.7812 34.333C23.7968 34.343 23.8136 34.3525 23.8293 34.3632C23.8369 34.3674 23.8438 34.3719 23.8514 34.3761C23.8514 34.3769 23.8525 34.3769 23.8525 34.3769C23.9189 34.4181 23.9853 34.4589 24.0509 34.5009C24.0673 34.5108 24.0841 34.5215 24.1005 34.5322C24.1085 34.5371 24.1154 34.5409 24.1222 34.5459C24.1467 34.5615 24.1699 34.576 24.1924 34.5917C24.2481 34.6279 24.3027 34.6649 24.3584 34.7023C24.3595 34.7031 24.3603 34.7042 24.3622 34.705C24.4171 34.7424 24.4705 34.7794 24.5243 34.8175C24.5663 34.8476 24.6105 34.8778 24.6513 34.9083C24.6815 34.9297 24.712 34.951 24.7421 34.9735C24.7715 34.996 24.8016 35.0174 24.8322 35.0399C24.8905 35.0842 24.95 35.1288 25.0088 35.1738C26.1719 36.0741 27.1748 37.1719 27.9659 38.4171C28.4073 39.1113 28.783 39.8506 29.0848 40.6288C29.089 40.6387 29.0928 40.6494 29.0966 40.6593C29.6425 42.0761 29.9423 43.6161 29.9423 45.2267Z" fill="#323B5A"/>
<path d="M18.9873 31.5048H15.4625C13.9759 31.5048 12.8094 32.7797 12.9413 34.2602L13.2145 37.3291L17.2558 35.8795L21.2967 37.3291L21.5122 34.2102C21.6133 32.7473 20.454 31.5048 18.9873 31.5048Z" fill="white"/>
<path d="M25.7969 18.4536V25.3052H8.67615V18.4536C8.67615 16.0896 9.6344 14.6252 11.1832 13.7524C12.7323 12.8796 14.8727 12.5977 17.2359 12.5977H17.2722C21.9837 12.6038 25.7969 13.7379 25.7969 18.4536Z" fill="#474F6F"/>
<path d="M25.7969 18.4536V25.3052H17.2367L17.2722 18.9713V12.5977C21.9837 12.6038 25.7969 13.7379 25.7969 18.4536Z" fill="#323B5A"/>
<path d="M26.0914 21.5347C27.1805 21.5347 28.0632 22.4178 28.0632 23.5069C28.0632 25.4906 26.4553 27.0984 24.4717 27.0984V21.5305L26.0914 21.5347Z" fill="#FFA87A"/>
<path d="M8.38205 21.5347C7.29295 21.5347 6.40985 22.4178 6.40985 23.5069C6.40985 25.4906 8.01813 27.0984 10.0018 27.0984V21.5305L8.38205 21.5347Z" fill="#FFA87A"/>
<path d="M14.2494 28.6411V32.8918C14.2494 34.5413 15.5864 35.8795 17.2367 35.8795C18.8862 35.8795 20.2243 34.5413 20.2243 32.8918V28.6411H14.2494Z" fill="#E3835A"/>
<path d="M14.2494 28.6411V32.8918C14.2494 34.5413 15.5864 35.8795 17.2367 35.8795V28.6411H14.2494Z" fill="#FFA87A"/>
<path d="M9.52875 21.9052V24.8108C9.52875 29.0661 12.9784 32.518 17.2352 32.5188C17.236 32.5188 17.236 32.5188 17.2367 32.5188C21.492 32.5188 24.9439 29.0669 24.9439 24.8108V21.9052C24.9439 21.4672 24.9085 21.0377 24.836 20.6204C24.3332 17.6178 22.0928 15.2046 19.1857 14.4455C18.5635 14.2841 17.9093 14.1979 17.2367 14.1979C17.236 14.1979 17.236 14.1979 17.2352 14.1979C16.5615 14.1979 15.9081 14.2841 15.2859 14.447C12.3783 15.2046 10.1402 17.6178 9.63708 20.6204C9.56537 21.0377 9.52875 21.4672 9.52875 21.9052Z" fill="#FFA87A"/>
<path d="M23.6378 22.2344H24.9439V23.4284H23.6378V22.2344Z" fill="#323B5A"/>
<path d="M9.52875 21.9052V24.8108C9.52875 29.0661 12.9784 32.518 17.2352 32.5188V14.1979C16.5615 14.1979 15.9081 14.2838 15.2859 14.447C12.3783 15.2046 10.1402 17.6178 9.63708 20.6204C9.56537 21.0377 9.52875 21.4672 9.52875 21.9052Z" fill="#FFC0A4"/>
<path d="M24.9439 20.879V23.4283C24.6239 23.6897 24.1432 23.4623 24.1432 23.0488V21.2273C24.1432 20.8954 23.9372 20.5978 23.6267 20.4815C22.5384 20.0718 21.8578 18.9808 21.8578 17.8181V17.7433C20.509 18.5238 18.9427 18.9713 17.2722 18.9713C15.5712 18.9713 13.9794 18.5074 12.6148 17.6998V17.9226C12.6148 19.0636 11.9068 20.084 10.838 20.4842C10.5301 20.5997 10.3291 20.8988 10.3291 21.2276V23.0492C10.3291 23.3406 10.0895 23.5397 9.83659 23.5397C9.73055 23.5397 9.62297 23.5054 9.52875 23.4283V20.879C9.52875 18.7508 10.3913 16.824 11.7859 15.4293C13.1806 14.0339 15.1074 13.1714 17.2356 13.1714C17.2478 13.1714 17.26 13.1714 17.2718 13.1721C21.513 13.1908 24.9439 16.634 24.9439 20.879Z" fill="#474F6F"/>
<path d="M24.944 20.879V23.4283C24.6239 23.6896 24.1432 23.4623 24.1432 23.0488V21.2272C24.1432 20.8954 23.9373 20.5978 23.6267 20.4815C22.5384 20.0718 21.8579 18.9808 21.8579 17.818V17.7433C20.509 18.5238 18.9427 18.9712 17.2722 18.9712V13.1721C21.513 13.1908 24.944 16.634 24.944 20.879Z" fill="#323B5A"/>
<path d="M9.52875 22.2344H10.8349V23.4284H9.52875V22.2344Z" fill="#323B5A"/>
<path d="M20.6036 23.8449C20.6036 24.3687 20.1786 24.7936 19.6545 24.7936C19.1303 24.7936 18.7057 24.3687 18.7057 23.8449C18.7057 23.3208 19.1303 22.8958 19.6545 22.8958C20.1786 22.8958 20.6036 23.3208 20.6036 23.8449Z" fill="#323B5A"/>
<path d="M15.7677 23.8449C15.7677 24.3687 15.3427 24.7936 14.8186 24.7936C14.2948 24.7936 13.8699 24.3687 13.8699 23.8449C13.8699 23.3208 14.2948 22.8958 14.8186 22.8958C15.3427 22.8958 15.7677 23.3208 15.7677 23.8449Z" fill="#323B5A"/>
<path d="M14.967 27.7081C14.2963 27.7081 13.9389 28.513 14.4005 29.0001C14.6896 29.3053 15.0272 29.5635 15.4011 29.7627C15.9481 30.0556 16.573 30.2212 17.2367 30.2212C17.9005 30.2212 18.5253 30.0556 19.0723 29.7627C19.4462 29.5635 19.7842 29.3053 20.0729 29.0001C20.5345 28.513 20.1771 27.7081 19.5065 27.7081H14.967Z" fill="#323B5A"/>
<path d="M17.2367 26.519C16.8796 26.519 16.5901 26.2295 16.5901 25.8724V23.0038C16.5901 22.6467 16.8796 22.3572 17.2367 22.3572C17.5937 22.3572 17.8833 22.6467 17.8833 23.0038V25.8724C17.8833 26.2295 17.5937 26.519 17.2367 26.519Z" fill="#E3835A"/>
<path d="M19.0723 29.7623C18.5253 30.0556 17.9008 30.2212 17.2367 30.2212C17.2359 30.2212 17.2359 30.2212 17.2352 30.2212C16.5718 30.2212 15.9466 30.0556 15.4007 29.7623C15.8577 29.2683 16.5096 28.9585 17.2352 28.9578C17.2359 28.9578 17.2359 28.9578 17.2367 28.9578C17.9623 28.9578 18.6161 29.2683 19.0723 29.7623Z" fill="#FF3445"/>
<path d="M19.0723 29.7623C18.5253 30.0556 17.9008 30.2212 17.2367 30.2212C17.2359 30.2212 17.2359 30.2212 17.2352 30.2212V28.9578C17.2359 28.9578 17.2359 28.9578 17.2367 28.9578C17.9622 28.9578 18.6161 29.2683 19.0723 29.7623Z" fill="#DD1265"/>
<path d="M23.6378 22.2344H18.6554C18.4364 22.2344 18.2361 22.2958 18.0664 22.4015C17.8203 22.5556 17.54 22.6464 17.2508 22.6551H17.2352C17.2237 22.6563 17.213 22.6563 17.202 22.6563C16.8957 22.6563 16.5977 22.5636 16.338 22.4015C16.169 22.2958 15.9687 22.2344 15.749 22.2344H10.8349C10.6747 22.2363 10.5457 22.3664 10.5457 22.5273V23.1495C10.5457 23.2754 10.627 23.3887 10.7471 23.4276C10.7479 23.4288 10.7479 23.4288 10.749 23.4288C10.8593 23.4631 10.9394 23.5565 10.9569 23.6718C11.0226 24.078 11.1717 25.0099 11.1717 25.0099C11.1885 25.1122 11.2148 25.211 11.2499 25.3048C11.4734 25.9121 12.0556 26.331 12.7235 26.331H14.8662C15.5273 26.331 16.1133 25.9178 16.3399 25.3048C16.3524 25.2705 16.3643 25.2354 16.375 25.1992C16.375 25.1992 16.621 24.3477 16.7518 23.9025C16.8106 23.6992 16.9952 23.5558 17.2069 23.5607C17.2119 23.5607 17.2169 23.5607 17.2237 23.5615C17.2264 23.5615 17.2306 23.5615 17.2352 23.5627C17.2352 23.5627 17.2352 23.5627 17.2363 23.5627C17.2363 23.5627 17.2375 23.5627 17.2382 23.5627C17.2413 23.5627 17.2432 23.5627 17.2462 23.5634C17.4373 23.581 17.5995 23.716 17.6525 23.9025C17.7791 24.3378 18.0294 25.1992 18.0294 25.1992C18.0401 25.2354 18.0519 25.2705 18.0645 25.3048C18.2911 25.9178 18.877 26.331 19.5389 26.331H21.6816C21.7754 26.331 21.8674 26.3233 21.957 26.3066C22.5059 26.2101 22.9629 25.8263 23.1552 25.3048C23.1903 25.211 23.2159 25.1122 23.2323 25.0099C23.2323 25.0099 23.3623 24.202 23.4318 23.7717C23.4569 23.6103 23.5714 23.4776 23.7274 23.4288C23.7285 23.4288 23.7285 23.4288 23.7293 23.4276C23.7881 23.4074 23.838 23.37 23.8739 23.3223C23.909 23.2735 23.9296 23.214 23.9296 23.1495V22.5273C23.9296 22.3652 23.7987 22.2344 23.6378 22.2344ZM15.1924 25.8446C15.0303 25.9159 14.8514 25.9552 14.666 25.9552H12.8761C12.3966 25.9552 11.9705 25.6981 11.7412 25.3048C11.6611 25.1679 11.6043 25.0145 11.578 24.8497L11.3788 23.6115C11.3407 23.375 11.3945 23.1484 11.5127 22.963C11.6768 22.7051 11.9659 22.5304 12.2997 22.5304H15.4041C16.0263 22.5304 16.4738 23.127 16.2998 23.7236L16.0831 24.4698L15.9267 25.0077C15.8954 25.1133 15.8523 25.2129 15.7989 25.3048C15.6582 25.5459 15.4442 25.7336 15.1924 25.8446ZM21.957 25.8339C21.9539 25.8358 21.952 25.837 21.9494 25.8377C21.7918 25.9045 21.6202 25.9404 21.4405 25.9404H19.664C19.6426 25.9404 19.6213 25.9396 19.6007 25.9384C19.1601 25.9171 18.7668 25.6749 18.5459 25.3048C18.4902 25.211 18.4452 25.1095 18.4139 25.0012L18.0439 23.7274C17.8829 23.1728 18.2628 22.6181 18.8194 22.551C18.8564 22.5468 18.8934 22.5449 18.9316 22.5449H22.0096C22.5799 22.5449 23.0148 23.0545 22.9236 23.6172L22.829 24.2031L22.7314 24.8185L22.7264 24.8448C22.6993 25.0119 22.6417 25.1671 22.5586 25.3048C22.419 25.5402 22.208 25.7256 21.957 25.8339Z" fill="#404A66"/>
<path d="M26.9043 37.4408C25.6996 38.6459 25.5387 40.5437 26.5236 41.9342L27.6692 43.5508L28.0399 43.1804C29.2099 42.0105 29.2099 40.1134 28.0399 38.9435L28.5477 38.4353C29.1641 37.8189 29.2587 36.8786 28.8319 36.1622C28.709 35.9566 28.4271 35.9184 28.2574 36.0878L26.9043 37.4408Z" fill="#FFA87A"/>
<path d="M27.9858 38.7726L27.2869 38.0737L36.0302 29.7558L36.2774 30.003L27.9858 38.7726Z" fill="#323B5A"/>
<path d="M31.0703 39.3379L30.7442 40.6593L30.1037 43.256V49.4774C30.0499 49.4892 29.9961 49.4999 29.9423 49.5105C28.3447 49.8321 26.6922 50 25 50H24.8379V49.9988L27.4677 41.6805L29.0383 40.6593L29.0848 40.6288L31.0703 39.3379Z" fill="#FFA87A"/>
<path d="M30.2528 37.6534L28.5598 39.3467C28.305 39.6015 27.8915 39.6015 27.6363 39.3467C27.3815 39.0915 27.3815 38.678 27.6363 38.4232L29.3297 36.7298C29.5845 36.475 29.998 36.475 30.2528 36.7298C30.508 36.985 30.508 37.3985 30.2528 37.6534Z" fill="#FFC0A4"/>
<path d="M30.7899 38.9633L29.097 40.6566C28.8418 40.9115 28.4282 40.9115 28.1734 40.6566C27.9186 40.4014 27.9186 39.9879 28.1734 39.7331L29.8668 38.0397C30.1216 37.7849 30.5351 37.7849 30.7899 38.0397C31.0451 38.295 31.0451 38.7085 30.7899 38.9633Z" fill="#FFC0A4"/>
<path d="M31.416 40.184L29.723 41.8774C29.4678 42.1322 29.0543 42.1322 28.7995 41.8774C28.5446 41.6225 28.5446 41.209 28.7995 40.9538L30.4924 39.2609C30.7476 39.0057 31.1611 39.0057 31.416 39.2609C31.6712 39.5157 31.6712 39.9292 31.416 40.184Z" fill="#FFC0A4"/>
<path d="M32.3395 41.1076L30.6461 42.8009C30.3913 43.0557 29.9778 43.0557 29.723 42.8009C29.4678 42.5457 29.4678 42.1322 29.723 41.8774L31.4159 40.184C31.6711 39.9292 32.0846 39.9292 32.3395 40.184C32.5943 40.4392 32.5943 40.8528 32.3395 41.1076Z" fill="#FFC0A4"/>
</svg>
