<svg width="40" height="40" viewBox="0 0 40 40" fill="none" xmlns="http://www.w3.org/2000/svg">
<path d="M14.0475 31.36L8.08 34.6151C7.72981 34.806 7.41509 35.0407 7.12226 35.2966C10.6015 38.2302 15.0928 40 20 40C24.8709 40 29.3336 38.2566 32.803 35.363C32.483 35.0928 32.1358 34.8498 31.7509 34.6581L25.3608 31.4634C24.5351 31.0506 24.0136 30.2068 24.0136 29.2838V26.7766C24.1932 26.5721 24.3985 26.3094 24.6181 25.9992C25.4891 24.769 26.1479 23.4158 26.6045 21.9962C27.4242 21.7434 28.0279 20.9864 28.0279 20.0868V17.4106C28.0279 16.8219 27.766 16.2958 27.3592 15.9275V12.0589C27.3592 12.0589 28.154 6.03848 20.0008 6.03848C11.8475 6.03848 12.6423 12.0589 12.6423 12.0589V15.9275C12.2347 16.2958 11.9736 16.8219 11.9736 17.4106V20.0868C11.9736 20.7917 12.3442 21.4121 12.8989 21.7706C13.5675 24.6815 15.3185 26.7766 15.3185 26.7766V29.2219C15.3177 30.1124 14.8302 30.9328 14.0475 31.36Z" fill="#E7ECED"/>
<path d="M22.02 3.02164C11.9191 2.84907 3.59014 10.8978 3.41757 20.9987C3.31955 26.726 5.87222 31.8734 9.93661 35.2966C10.2024 35.0646 10.4875 34.852 10.8043 34.6795L16.2624 31.7023C16.9782 31.3116 17.4241 30.5612 17.4241 29.7453V27.5088C17.4241 27.5088 15.822 25.5926 15.2111 22.9301C14.7044 22.6022 14.3648 22.0355 14.3648 21.3901V18.9424C14.3648 18.4039 14.6043 17.9228 14.9764 17.586V14.0476C14.9764 14.0476 14.2495 8.54116 21.7067 8.54116C29.1638 8.54116 28.4369 14.0476 28.4369 14.0476V17.586C28.8097 17.9228 29.0485 18.4039 29.0485 18.9424V21.3901C29.0485 22.2129 28.4963 22.9053 27.7466 23.1365C27.329 24.4349 26.7264 25.6726 25.9298 26.7978C25.7289 27.0815 25.5412 27.3217 25.3769 27.5088V29.8019C25.3769 30.6461 25.8539 31.4186 26.6091 31.7954L32.4537 34.7174C32.8044 34.8928 33.1212 35.1143 33.4132 35.3608C37.3547 32.0736 39.9012 27.1588 39.9957 21.6241C40.1697 11.5232 32.1217 3.19422 22.02 3.02164Z" fill="#556080"/>
</svg>
