<svg height="512" viewBox="0 0 64 64" width="512" xmlns="http://www.w3.org/2000/svg"><g id="Filled_outline" data-name="Filled outline"><path d="m6 57a4 4 0 0 1 4-4h48v-50h-46a6 6 0 0 0 -6 6z" fill="#2d75bb"/><path d="m16 7h38v42h-38z" fill="#fcec97"/><path d="m54.5 49.5h-39v-43h39zm-38-1h37v-41h-37z" fill="#fcec97"/><path d="m10 53h48a0 0 0 0 1 0 0v8a0 0 0 0 1 0 0h-48a4 4 0 0 1 -4-4 4 4 0 0 1 4-4z" fill="#fcec97"/><path d="m9 56h6v2h-6z" fill="#d3843d"/><path d="m23 56h35v2h-35z" fill="#d3843d"/><path d="m6 57a4 4 0 0 1 4-4h2v-50a6 6 0 0 0 -6 6z" fill="#d3843d"/><path d="m7 47h-2a3.887 3.887 0 0 1 4-4v2a1.883 1.883 0 0 0 -2 2z" fill="#fcec97"/><path d="m7 42h-2a3.887 3.887 0 0 1 4-4v2a1.883 1.883 0 0 0 -2 2z" fill="#fcec97"/><path d="m7 16h-2a3.887 3.887 0 0 1 4-4v2a1.883 1.883 0 0 0 -2 2z" fill="#fcec97"/><path d="m46 19h-8v-6h-6v6h-8v6h8v18h6v-18h8z" fill="#d3843d"/><g fill="#e4544f"><path d="m21 16h-2v-6h6v2h-4z"/><path d="m25 46h-6v-6h2v4h4z"/><path d="m51 16h-2v-4h-4v-2h6z"/><path d="m51 46h-6v-2h4v-4h2z"/></g><path d="m42 33h2v2h-2z" fill="#d3843d"/><path d="m46 35h2v2h-2z" fill="#d3843d"/><path d="m23 59-4-2-4 2v-6h8z" fill="#e4544f"/><path d="m10 62h48a1 1 0 0 0 1-1v-58a1 1 0 0 0 -1-1h-46a7.008 7.008 0 0 0 -7 7v48a5.006 5.006 0 0 0 5 5zm6-8h6v3.382l-2.553-1.277a1 1 0 0 0 -.894 0l-2.553 1.277zm8 0h33v2h-33zm33-2h-44v-48h44zm-50-8.513v-1.487a1.883 1.883 0 0 1 2-2v-2a4.08 4.08 0 0 0 -2 .487v-22.487a1.883 1.883 0 0 1 2-2v-2a4.08 4.08 0 0 0 -2 .487v-3.487a5.009 5.009 0 0 1 4-4.9v47.9h-1a4.948 4.948 0 0 0 -3 1.026v-6.026a1.883 1.883 0 0 1 2-2v-2a4.08 4.08 0 0 0 -2 .487zm3 10.513h4v2h-5v2h5v1a1 1 0 0 0 1.447.9l3.553-1.782 3.553 1.782a1 1 0 0 0 1.447-.9v-1h33v2h-47a3 3 0 0 1 0-6z"/><path d="m23 26h8v18h8v-18h8v-8h-8v-6h-8v6h-8zm2-6h8v-6h4v6h8v4h-8v18h-4v-18h-8z"/><path d="m55 6h-40v44h40zm-2 42h-36v-40h36z"/><path d="m21 12h4v-2h-6v6h2z"/><path d="m25 44h-4v-4h-2v6h6z"/><path d="m49 16h2v-6h-6v2h4z"/><path d="m49 44h-4v2h6v-6h-2z"/><path d="m42 33h2v2h-2z"/><path d="m46 35h2v2h-2z"/></g></svg>